<svg xmlns="http://www.w3.org/2000/svg">
	<symbol id="right" width="26" height="16" viewBox="0 0 26 16" fill="none">
		<path d="M25.3665 8.81941C25.757 8.42889 25.757 7.79572 25.3665 7.4052L19.0025 1.04124C18.612 0.650712 17.9788 0.650712 17.5883 1.04124C17.1978 1.43176 17.1978 2.06493 17.5883 2.45545L23.2451 8.1123L17.5883 13.7692C17.1978 14.1597 17.1978 14.7928 17.5883 15.1834C17.9788 15.5739 18.612 15.5739 19.0025 15.1834L25.3665 8.81941ZM0.814453 8.1123L0.814453 9.1123L24.6593 9.1123V8.1123V7.1123L0.814453 7.1123L0.814453 8.1123Z" fill="currentColor" />
	</symbol>
  <symbol id="link" width="20" height="20" viewBox="0 0 20 20" fill="none">
    <path d="M19.9996 2.02856C20.0154 1.4765 19.5806 1.01618 19.0286 1.00041L10.0322 0.74337C9.48017 0.727597 9.01985 1.16234 9.00408 1.7144C8.98831 2.26646 9.42305 2.72678 9.97511 2.74255L17.9718 2.97103L17.7434 10.9678C17.7276 11.5198 18.1623 11.9801 18.7144 11.9959C19.2665 12.0117 19.7268 11.5769 19.7426 11.0249L19.9996 2.02856ZM1 19L1.68662 19.727L19.6866 2.72701L19 2L18.3134 1.27299L0.313376 18.273L1 19Z" fill="currentColor"/>
  </symbol>
</svg>
