<svg width="15" height="17" fill="none" xmlns="http://www.w3.org/2000/svg">
	<symbol id="icon" viewBox="0 0 15 17">
		<path d="M13.0612 1.63265H12.2449V0H10.6122V1.63265H4.08163V0H2.44898V1.63265H1.63265C0.726531 1.63265 0.00816326 2.36735 0.00816326 3.26531L0 14.6939C0 15.5918 0.726531 16.3265 1.63265 16.3265H13.0612C13.9592 16.3265 14.6939 15.5918 14.6939 14.6939V3.26531C14.6939 2.36735 13.9592 1.63265 13.0612 1.63265ZM13.0612 14.6939H1.63265V6.53061H13.0612V14.6939ZM4.89796 9.79592H3.26531V8.16327H4.89796V9.79592ZM8.16327 9.79592H6.53061V8.16327H8.16327V9.79592ZM11.4286 9.79592H9.79592V8.16327H11.4286V9.79592ZM4.89796 13.0612H3.26531V11.4286H4.89796V13.0612ZM8.16327 13.0612H6.53061V11.4286H8.16327V13.0612ZM11.4286 13.0612H9.79592V11.4286H11.4286V13.0612Z" fill="currentColor" />
	</symbol>
</svg>
