<svg width="21" height="21" viewBox="0 0 21 21" fill="none" xmlns="http://www.w3.org/2000/svg">
	<symbol id="icon" viewBox="0 0 21 21">
		<g clip-path="url(#clip0_143_1358)">
			<path d="M2.08643 10.2249C2.08643 8.3179 2.08643 7.36439 2.51909 6.57394C2.95176 5.7835 3.74221 5.29292 5.32312 4.31176L6.98979 3.27738C8.66091 2.24023 9.49648 1.72166 10.4198 1.72166C11.343 1.72166 12.1786 2.24023 13.8497 3.27738L15.5164 4.31176C17.0973 5.29292 17.8878 5.7835 18.3204 6.57394C18.7531 7.36439 18.7531 8.3179 18.7531 10.2249V11.4925C18.7531 14.7432 18.7531 16.3686 17.7768 17.3784C16.8005 18.3883 15.2291 18.3883 12.0864 18.3883H8.75309C5.6104 18.3883 4.03905 18.3883 3.06274 17.3784C2.08643 16.3686 2.08643 14.7432 2.08643 11.4925V10.2249Z" stroke="#231F20" stroke-width="1.5" />
			<path d="M10.4199 12.555L10.4199 15.055" stroke="#231F20" stroke-width="1.5" stroke-linecap="round" />
		</g>
		<defs>
			<clipPath id="clip0_143_1358">
				<rect width="20" height="20" fill="white" transform="translate(0.419922 0.0549927)" />
			</clipPath>
		</defs>
	</symbol>
</svg>
