<svg width="386" height="79" viewBox="0 0 386 79" fill="none" xmlns="http://www.w3.org/2000/svg">
<path d="M93.2096 0H10.9414C4.89862 0 0 4.8986 0 10.9414V67.1686C0 73.2113 4.89862 78.11 10.9414 78.11H93.2096C99.2524 78.11 104.151 73.2113 104.151 67.1686V10.9414C104.151 4.8986 99.2524 0 93.2096 0Z" fill="#231F20"/>
<path d="M48.9377 22.0129L44.2337 31.5639C44.0096 31.9866 43.6733 32.3393 43.2617 32.5831C42.8501 32.8269 42.3791 32.9523 41.9008 32.9456C41.4224 32.9389 40.9552 32.8002 40.5506 32.545C40.146 32.2897 39.8197 31.9277 39.6076 31.4989L32.3697 15.7365C32.1618 15.2938 31.8333 14.9188 31.4219 14.6544C31.0104 14.3901 30.5327 14.2472 30.0436 14.2422H21.0904C20.6637 14.2513 20.2457 14.3654 19.8735 14.5745C19.5013 14.7835 19.1863 15.081 18.9564 15.4406C18.7265 15.8003 18.5887 16.2111 18.5552 16.6366C18.5217 17.0622 18.5936 17.4894 18.7644 17.8806L23.3905 27.8214C23.5613 28.2126 23.6332 28.6399 23.5997 29.0654C23.5662 29.491 23.4284 29.9018 23.1985 30.2614C22.9686 30.6211 22.6536 30.9186 22.2814 31.1276C21.9092 31.3366 21.4912 31.4508 21.0645 31.4599H15.2169C14.7849 31.4707 14.3624 31.5891 13.9877 31.8043C13.613 32.0195 13.2978 32.3248 13.0708 32.6925C12.8437 33.0601 12.7119 33.4786 12.6873 33.9101C12.6627 34.3415 12.7461 34.7723 12.9299 35.1634L14.8271 38.9577C15.0365 39.3686 15.3515 39.7163 15.7397 39.9652C16.1279 40.2141 16.5754 40.3553 17.0361 40.3741L27.9775 40.712C28.4459 40.7335 28.8998 40.8814 29.291 41.1399C29.6821 41.3984 29.9961 41.7579 30.1996 42.1804L39.8285 62.4128C40.0466 62.8386 40.378 63.1958 40.7861 63.4453C41.1942 63.6947 41.6632 63.8267 42.1416 63.8267C42.6199 63.8267 43.0889 63.6947 43.497 63.4453C43.9051 63.1958 44.2365 62.8386 44.4546 62.4128L58.0728 33.513C58.2371 33.1657 58.3223 32.7863 58.3223 32.402C58.3223 32.0178 58.2371 31.6383 58.0728 31.291L53.5507 22.0259C53.3326 21.6029 53.0025 21.2479 52.5965 20.9997C52.1905 20.7514 51.7241 20.6194 51.2481 20.6181C50.7722 20.6167 50.3051 20.7461 49.8977 20.9921C49.4902 21.238 49.1582 21.5911 48.9377 22.0129Z" fill="#F7AE1C"/>
<path d="M80.4751 27.8085L85.1661 17.8936C85.3393 17.5028 85.4135 17.0753 85.382 16.649C85.3506 16.2227 85.2144 15.8107 84.9857 15.4496C84.7569 15.0885 84.4426 14.7893 84.0706 14.5787C83.6986 14.3681 83.2804 14.2525 82.853 14.2422H73.445C72.9624 14.2461 72.4903 14.3843 72.0818 14.6413C71.6732 14.8984 71.3444 15.2641 71.132 15.6976L54.512 50.7827C54.3497 51.1284 54.2656 51.5055 54.2656 51.8873C54.2656 52.2691 54.3497 52.6462 54.512 52.9918L59.0471 62.4388C59.2664 62.8612 59.5975 63.2152 60.0042 63.4623C60.4109 63.7095 60.8777 63.8401 61.3536 63.8401C61.8295 63.8401 62.2963 63.7095 62.703 63.4623C63.1098 63.2152 63.4409 62.8612 63.6602 62.4388L73.2761 42.2194C73.4866 41.7835 73.8147 41.4151 74.2234 41.1556C74.6321 40.8962 75.1051 40.756 75.5891 40.751H87.0113C87.4989 40.7472 87.9757 40.6062 88.387 40.3442C88.7983 40.0823 89.1276 39.7099 89.3373 39.2696L91.2735 35.0854C91.4443 34.6942 91.5162 34.2669 91.4827 33.8414C91.4492 33.4158 91.3114 33.0051 91.0815 32.6454C90.8516 32.2857 90.5366 31.9882 90.1644 31.7792C89.7922 31.5702 89.3742 31.456 88.9475 31.4469H82.7881C82.3624 31.4357 81.946 31.32 81.5755 31.1101C81.205 30.9003 80.8918 30.6025 80.6633 30.2432C80.4349 29.8838 80.2982 29.4738 80.2654 29.0493C80.2326 28.6248 80.3046 28.1987 80.4751 27.8085Z" fill="#F7AE1C"/>
<path d="M138.938 55.0583L131.505 24.833H138.002L142.134 42.8694C142.242 43.2534 142.325 43.6441 142.381 44.0389C142.459 44.5587 142.55 45.0914 142.628 45.6502C142.706 46.209 142.784 46.7028 142.836 47.1446H143.044C143.044 46.8197 143.148 46.4559 143.187 46.0401C143.226 45.6242 143.278 45.2344 143.356 44.8316C143.434 44.4287 143.486 44.0649 143.564 43.714C143.642 43.3632 143.681 43.0773 143.707 42.8694L147.566 24.833H154.921L158.819 42.8694C158.929 43.2618 159.011 43.6612 159.066 44.0649C159.157 44.5587 159.235 45.0914 159.326 45.6502C159.417 46.209 159.469 46.7028 159.521 47.1446H159.729C159.794 46.8197 159.846 46.4688 159.924 46.092C160.002 45.7152 160.054 45.3123 160.132 44.9225C160.21 44.5327 160.275 44.1558 160.353 43.792C160.431 43.4281 160.509 43.1423 160.561 42.8694L164.654 24.833H170.566L163.095 55.0842H156.078L151.854 36.4501C151.763 36.0473 151.672 35.5665 151.581 35.0207L151.309 33.4094C151.231 32.8766 151.166 32.4088 151.101 31.993H150.945C150.945 32.4088 150.828 32.9026 150.763 33.4484C150.698 33.9941 150.607 34.5529 150.503 35.0857C150.399 35.6185 150.321 36.0733 150.243 36.4501L146.111 55.0583H138.938Z" fill="white"/>
<path d="M175.101 55.0583V24.833H181.247V55.0842L175.101 55.0583Z" fill="white"/>
<path d="M188.563 55.0583V24.833H194.216L205.612 41.1541C205.768 41.362 205.976 41.6479 206.223 42.0118C206.469 42.3756 206.703 42.7394 206.924 43.0903C207.102 43.3572 207.254 43.64 207.379 43.935H207.587V24.833H213.408V55.0842H207.73L196.035 38.3733L195.164 37.0739C194.865 36.5671 194.644 36.1902 194.501 35.9303H194.307V55.1492L188.563 55.0583Z" fill="white"/>
<path d="M220.725 55.0583V24.833H226.39L237.786 41.1541C237.942 41.362 238.15 41.6479 238.397 42.0118C238.644 42.3756 238.878 42.7394 239.099 43.0903C239.276 43.3572 239.428 43.64 239.554 43.935H239.762V24.833H245.583V55.0842H239.93L228.235 38.3733C227.963 37.9575 227.664 37.5027 227.365 37.0739C227.066 36.645 226.845 36.1902 226.702 35.9303H226.494V55.1492L220.725 55.0583Z" fill="white"/>
<path d="M265.348 55.5902C262.791 55.6672 260.256 55.0949 257.98 53.9269C255.904 52.7779 254.268 50.9726 253.328 48.794C252.158 45.9907 251.608 42.9675 251.716 39.9318C251.716 34.6387 252.921 30.71 255.329 28.1457C256.632 26.8184 258.203 25.7842 259.937 25.112C261.672 24.4398 263.529 24.145 265.387 24.2474C267.582 24.2236 269.756 24.6665 271.767 25.5468C273.594 26.3573 275.144 27.6855 276.224 29.3672C277.382 31.3303 277.947 33.5872 277.848 35.8645H273.144C273.196 34.4484 272.869 33.0442 272.196 31.7972C271.566 30.7225 270.623 29.8658 269.493 29.3412C268.066 28.7284 266.52 28.4429 264.969 28.5059C263.417 28.5688 261.899 28.9786 260.527 29.7051C259.16 30.5627 258.107 31.8389 257.525 33.3435C256.789 35.3154 256.444 37.4121 256.511 39.5159V40.4256C256.443 42.5295 256.788 44.6264 257.525 46.5979C258.089 48.0958 259.142 49.3595 260.514 50.1844C262.017 51.0078 263.713 51.4118 265.426 51.3539C266.858 51.3912 268.281 51.1163 269.597 50.5483C270.743 50.0333 271.701 49.1751 272.339 48.0923C273.026 46.8544 273.363 45.4529 273.313 44.038H277.9C277.99 46.3144 277.426 48.5688 276.276 50.5353C275.206 52.2193 273.652 53.5416 271.819 54.3297C269.773 55.1939 267.569 55.6232 265.348 55.5902Z" fill="white"/>
<path d="M285.073 55.0583V24.833H289.699V37.4896H304.058V24.833H308.684V55.0842H304.058V41.7259H289.699V55.0842L285.073 55.0583Z" fill="white"/>
<path d="M314.285 55.0583L325.447 24.833H331.347L342.496 55.0842H337.545L335.024 48.0672H321.614L319.093 55.0842L314.285 55.0583ZM323.043 43.857H333.439L330.268 34.9947C330.19 34.7348 330.061 34.371 329.892 33.8902C329.723 33.4094 329.554 32.9156 329.385 32.3568L328.839 30.6546C328.657 30.0828 328.501 29.563 328.371 29.0952H328.124C327.955 29.654 327.747 30.3037 327.501 31.0704C327.254 31.837 327.007 32.5777 326.773 33.2794C326.539 33.9811 326.344 34.5789 326.175 34.9947L323.043 43.857Z" fill="white"/>
<path d="M348.188 55.0583V24.833H352.814V55.0842L348.188 55.0583Z" fill="white"/>
<path d="M361.572 55.0583V24.833H366.029L378.946 43.792C379.154 44.0265 379.341 44.2787 379.505 44.5457C379.713 44.8706 379.907 45.1954 380.102 45.5203C380.263 45.7724 380.402 46.0375 380.518 46.3129H380.726V24.833H385.183V55.0842H380.882L367.797 35.8783L366.978 34.5789C366.64 34.0331 366.393 33.6173 366.237 33.2794H366.029V55.0583H361.572Z" fill="white"/>
</svg>
