<svg width="42" height="42" fill="none" xmlns="http://www.w3.org/2000/svg">
	<symbol id="prev" viewBox="0 0 42 42">
		<path d="M22.733 11.0776C23.0866 10.6533 23.7172 10.596 24.1414 10.9496C24.5657 11.3031 24.623 11.9337 24.2695 12.358L23.5012 11.7178L22.733 11.0776ZM16.1355 20.5567L15.3673 21.1969C15.0582 20.826 15.0582 20.2873 15.3673 19.9165L16.1355 20.5567ZM24.2695 28.7554C24.623 29.1797 24.5657 29.8102 24.1414 30.1638C23.7172 30.5174 23.0866 30.46 22.733 30.0358L23.5012 29.3956L24.2695 28.7554ZM23.5012 11.7178L24.2695 12.358L16.9037 21.1969L16.1355 20.5567L15.3673 19.9165L22.733 11.0776L23.5012 11.7178ZM16.1355 20.5567L16.9037 19.9165L24.2695 28.7554L23.5012 29.3956L22.733 30.0358L15.3673 21.1969L16.1355 20.5567ZM21 1V2C10.5066 2 2 10.5066 2 21H1H0C0 9.40202 9.40202 -4.76837e-07 21 0V1ZM1 21H2C2 31.4934 10.5066 40 21 40V41V42C9.40202 42 0 32.598 0 21H1ZM21 41V40C31.4934 40 40 31.4934 40 21H41H42C42 32.598 32.598 42 21 42V41ZM41 21H40C40 10.5066 31.4934 2 21 2V1V0C32.598 5.36442e-07 42 9.40202 42 21H41Z" fill="currentColor" />
	</symbol>
	<symbol id="next" viewBox="0 0 42 42">
		<path d="M19.267 11.0776C18.9134 10.6533 18.2828 10.596 17.8586 10.9496C17.4343 11.3031 17.377 11.9337 17.7305 12.358L18.4988 11.7178L19.267 11.0776ZM25.8645 20.5567L26.6327 21.1969C26.9418 20.826 26.9418 20.2873 26.6327 19.9165L25.8645 20.5567ZM17.7305 28.7554C17.377 29.1797 17.4343 29.8102 17.8586 30.1638C18.2828 30.5174 18.9134 30.46 19.267 30.0358L18.4988 29.3956L17.7305 28.7554ZM18.4988 11.7178L17.7305 12.358L25.0963 21.1969L25.8645 20.5567L26.6327 19.9165L19.267 11.0776L18.4988 11.7178ZM25.8645 20.5567L25.0963 19.9165L17.7305 28.7554L18.4988 29.3956L19.267 30.0358L26.6327 21.1969L25.8645 20.5567ZM21 1V2C31.4934 2 40 10.5066 40 21H41H42C42 9.40202 32.598 -4.76837e-07 21 0V1ZM41 21H40C40 31.4934 31.4934 40 21 40V41V42C32.598 42 42 32.598 42 21H41ZM21 41V40C10.5066 40 2 31.4934 2 21H1H0C5.36442e-07 32.598 9.40202 42 21 42V41ZM1 21H2C2 10.5066 10.5066 2 21 2V1V0C9.40202 5.36442e-07 -4.76837e-07 9.40202 0 21H1Z" fill="currentColor" />
	</symbol>
</svg>
