<svg width="28" height="32" viewBox="0 0 28 32" fill="none" xmlns="http://www.w3.org/2000/svg">
<path fill-rule="evenodd" clip-rule="evenodd" d="M21.1854 31.0232C19.2373 31.6567 17.1584 31.9992 15 31.9992C12.84 31.9992 10.7598 31.6563 8.8106 31.0219C9.71099 31.1298 10.0437 30.5436 10.0437 30.0374C10.0437 29.8171 10.0399 29.4284 10.0349 28.9085C10.0291 28.3069 10.0216 27.5296 10.0162 26.6339C4.45245 27.8433 3.2787 23.9507 3.2787 23.9507C2.36995 21.6392 1.0587 21.0237 1.0587 21.0237C-0.757552 19.7815 1.1962 19.8068 1.1962 19.8068C3.20245 19.9482 4.2587 21.8694 4.2587 21.8694C6.0437 24.9279 8.93995 24.0448 10.08 23.5318C10.2612 22.2385 10.7787 21.3564 11.3499 20.8562C6.9087 20.3509 2.23995 18.6347 2.23995 10.9657C2.23995 8.78029 3.0187 6.99425 4.2987 5.59444C4.09245 5.08797 3.4062 3.05399 4.4937 0.298302C4.4937 0.298302 6.1737 -0.239628 9.9937 2.34973C11.5899 1.90555 13.2999 1.6844 15.0012 1.67537C16.7 1.68409 18.4112 1.90555 20.0087 2.34973C23.8262 -0.239628 25.5025 0.298302 25.5025 0.298302C26.5937 3.05399 25.9075 5.08797 25.7012 5.59444C26.9837 6.99425 27.7575 8.78029 27.7575 10.9657C27.7575 18.6534 23.0812 20.346 18.6262 20.8412C19.3437 21.4592 19.9837 22.6799 19.9837 24.5475C19.9837 26.3367 19.9725 27.8942 19.9651 28.9263C19.9614 29.4377 19.9587 29.8201 19.9587 30.0377C19.9587 30.5462 20.2834 31.1336 21.1854 31.0232Z" fill="white"/>
</svg>
