<svg width="28" height="20" viewBox="0 0 28 20" fill="none" xmlns="http://www.w3.org/2000/svg">
<path d="M24.0306 3.15033C22.1957 1.68244 19.9939 0.948496 17.6697 0.826172L17.3027 1.19314C19.3823 1.68244 21.2171 2.66103 22.9297 4.0066C20.8501 2.90568 18.526 2.17174 16.0795 1.92709C15.3456 1.80477 14.7339 1.80477 14 1.80477C13.266 1.80477 12.6544 1.80477 11.9205 1.92709C9.474 2.17174 7.14984 2.90568 5.07033 4.0066C6.78286 2.66103 8.61773 1.68244 10.6972 1.19314L10.3303 0.826172C8.00611 0.948496 5.80427 1.68244 3.96941 3.15033C1.8899 7.0647 0.788981 11.4684 0.666656 15.9944C2.50152 17.9516 5.07033 19.1748 7.76146 19.1748C7.76146 19.1748 8.61773 18.1962 9.22935 17.3399C7.63913 16.973 6.17124 16.1167 5.19265 14.7711C6.04892 15.2604 6.90519 15.7497 7.76146 16.1167C8.86238 16.606 9.96329 16.8506 11.0642 17.0953C12.0428 17.2176 13.0214 17.3399 14 17.3399C14.9786 17.3399 15.9572 17.2176 16.9358 17.0953C18.0367 16.8506 19.1376 16.606 20.2385 16.1167C21.0948 15.7497 21.9511 15.2604 22.8073 14.7711C21.8287 16.1167 20.3608 16.973 18.7706 17.3399C19.3823 18.1962 20.2385 19.1748 20.2385 19.1748C22.9297 19.1748 25.4985 17.9516 27.3333 15.9944C27.211 11.4684 26.1101 7.0647 24.0306 3.15033ZM9.96329 13.7925C8.74005 13.7925 7.63913 12.6916 7.63913 11.3461C7.63913 10.0005 8.74005 8.89957 9.96329 8.89957C11.1865 8.89957 12.2875 10.0005 12.2875 11.3461C12.2875 12.6916 11.1865 13.7925 9.96329 13.7925ZM18.0367 13.7925C16.8134 13.7925 15.7125 12.6916 15.7125 11.3461C15.7125 10.0005 16.8134 8.89957 18.0367 8.89957C19.2599 8.89957 20.3608 10.0005 20.3608 11.3461C20.3608 12.6916 19.2599 13.7925 18.0367 13.7925Z" fill="white"/>
</svg>
