<svg width="26" height="20" viewBox="0 0 26 20" fill="none" xmlns="http://www.w3.org/2000/svg">
<path d="M25.0832 19.7143L23.2755 17.9048C23.0852 17.8095 22.9901 17.5238 22.9901 17.3333V2.85714C22.9901 2.66667 23.0852 2.38095 23.2755 2.19048L25.0832 0.0952366V0H18.6134L13.7611 12.2857L8.24268 0H1.58258V0.0952366L3.29517 2.47619C3.67575 2.85714 3.7709 3.42857 3.7709 3.90476V14.381C3.86604 14.9524 3.7709 15.619 3.48546 16.1905L0.916565 19.7143V19.8095H7.76696V19.7143L5.19806 16.2857C4.91263 15.7143 4.81748 15.1429 4.91263 14.4762V4.95238C5.00777 5.14286 5.10292 5.14286 5.19806 5.52381L11.6679 20H11.763L18.0425 4.28571C17.9474 4.85714 17.9474 5.52381 17.9474 6V17.2381C17.9474 17.5238 17.8523 17.7143 17.662 17.9048L15.7591 19.7143V19.8095H25.0832V19.7143Z" fill="white"/>
</svg>
