<svg width="23" height="19" viewBox="0 0 23 19" fill="none" xmlns="http://www.w3.org/2000/svg">
<path d="M1.98947 8.55749C7.80556 5.97026 11.6839 4.26459 13.6244 3.4405C19.165 1.08754 20.3162 0.67881 21.0666 0.66517C21.2317 0.662345 21.6007 0.704107 21.8397 0.902145C22.0416 1.06936 22.0971 1.29525 22.1237 1.4538C22.1502 1.61234 22.1833 1.9735 22.157 2.2557C21.8568 5.47672 20.5576 13.2933 19.8967 16.9009C19.617 18.4274 19.0664 18.9392 18.5332 18.9893C17.3746 19.0981 16.4949 18.2075 15.3727 17.4565C13.6168 16.2812 12.6248 15.5497 10.9204 14.4028C8.95057 13.0775 10.2275 12.3491 11.3501 11.1586C11.6439 10.8471 16.7486 6.10632 16.8474 5.67626C16.8598 5.62247 16.8712 5.42198 16.7546 5.31612C16.6379 5.21025 16.4657 5.24645 16.3415 5.27525C16.1654 5.31606 13.3603 7.20912 7.9261 10.9544C7.12987 11.5127 6.40868 11.7847 5.76251 11.7704C5.05016 11.7547 3.67988 11.3592 2.66122 11.0211C1.4118 10.6064 0.418779 10.3872 0.505249 9.68292C0.550288 9.3161 1.04503 8.94096 1.98947 8.55749Z" fill="white"/>
</svg>
