<svg width="26" height="18" viewBox="0 0 26 18" fill="none" xmlns="http://www.w3.org/2000/svg">
<path d="M13 0.246094C13.0234 0.246095 20.8271 0.246754 22.7812 0.78125C23.8521 1.06955 24.6971 1.91452 24.9854 2.98535C25.5183 4.93302 25.5002 8.98217 25.5 9.01855C25.5 9.01855 25.5002 13.0759 24.9854 15.0322C24.697 16.103 23.852 16.9471 22.7812 17.2354C20.8273 17.7493 13.0234 17.75 13 17.75C13 17.75 5.19641 17.7501 3.21875 17.2148C2.14801 16.9266 1.30302 16.0824 1.01465 15.0117C0.499824 13.076 0.5 8.99805 0.5 8.99805C0.500007 8.96866 0.501785 4.93467 1.01465 2.98535C1.30295 1.91452 2.16851 1.04904 3.21875 0.760742C5.17593 0.246052 13 0.246094 13 0.246094ZM10.5078 12.748L17.0156 9L10.5078 5.25195V12.748Z" fill="white"/>
</svg>
